<mxfile host="app.diagrams.net" agent="Mozilla/5.0 (X11; Linux x86_64) AppleWebKit/537.36 (KHTML, like Gecko) Chrome/135.0.0.0 Safari/537.36" version="26.2.14">
  <diagram name="Page-1" id="5cKjQfaWxu4M1fZnB9D6">
    <mxGraphModel dx="1424" dy="764" grid="1" gridSize="10" guides="1" tooltips="1" connect="1" arrows="1" fold="1" page="1" pageScale="1" pageWidth="850" pageHeight="1100" math="0" shadow="0">
      <root>
        <mxCell id="0" />
        <mxCell id="1" parent="0" />
        <mxCell id="pyAssOhsW1V1CbU0fwzd-3" value="" style="whiteSpace=wrap;html=1;shape=mxgraph.basic.octagon2;align=center;verticalAlign=middle;dx=15;" vertex="1" parent="1">
          <mxGeometry x="320" y="300" width="280" height="260" as="geometry" />
        </mxCell>
        <mxCell id="pyAssOhsW1V1CbU0fwzd-4" value="Config" style="rounded=0;whiteSpace=wrap;html=1;" vertex="1" parent="1">
          <mxGeometry x="400" y="510" width="120" height="30" as="geometry" />
        </mxCell>
        <mxCell id="pyAssOhsW1V1CbU0fwzd-5" value="Core" style="rounded=0;whiteSpace=wrap;html=1;" vertex="1" parent="1">
          <mxGeometry x="400" y="470" width="120" height="30" as="geometry" />
        </mxCell>
        <mxCell id="pyAssOhsW1V1CbU0fwzd-6" value="Use-case" style="rounded=0;whiteSpace=wrap;html=1;" vertex="1" parent="1">
          <mxGeometry x="400" y="400" width="120" height="60" as="geometry" />
        </mxCell>
        <mxCell id="pyAssOhsW1V1CbU0fwzd-7" value="Domain&lt;div&gt;(including Port interfaces)&lt;/div&gt;" style="rounded=0;whiteSpace=wrap;html=1;" vertex="1" parent="1">
          <mxGeometry x="400" y="320" width="120" height="50" as="geometry" />
        </mxCell>
        <mxCell id="pyAssOhsW1V1CbU0fwzd-2" value="" style="endArrow=block;dashed=1;endFill=0;endSize=12;html=1;rounded=0;entryX=0;entryY=0.5;entryDx=0;entryDy=0;" edge="1" parent="1" source="pyAssOhsW1V1CbU0fwzd-13" target="pyAssOhsW1V1CbU0fwzd-8">
          <mxGeometry width="160" relative="1" as="geometry">
            <mxPoint x="280" y="440" as="sourcePoint" />
            <mxPoint x="250" y="490" as="targetPoint" />
          </mxGeometry>
        </mxCell>
        <mxCell id="pyAssOhsW1V1CbU0fwzd-8" value="" style="rounded=0;whiteSpace=wrap;html=1;" vertex="1" parent="1">
          <mxGeometry x="310" y="390" width="20" height="80" as="geometry" />
        </mxCell>
        <mxCell id="pyAssOhsW1V1CbU0fwzd-10" value="" style="endArrow=block;dashed=1;endFill=0;endSize=12;html=1;rounded=0;entryX=1;entryY=0.5;entryDx=0;entryDy=0;exitX=0;exitY=0.5;exitDx=0;exitDy=0;" edge="1" parent="1" target="pyAssOhsW1V1CbU0fwzd-11" source="pyAssOhsW1V1CbU0fwzd-14">
          <mxGeometry width="160" relative="1" as="geometry">
            <mxPoint x="640" y="440" as="sourcePoint" />
            <mxPoint x="440" y="490" as="targetPoint" />
          </mxGeometry>
        </mxCell>
        <mxCell id="pyAssOhsW1V1CbU0fwzd-11" value="" style="rounded=0;whiteSpace=wrap;html=1;" vertex="1" parent="1">
          <mxGeometry x="590" y="390" width="20" height="80" as="geometry" />
        </mxCell>
        <mxCell id="pyAssOhsW1V1CbU0fwzd-13" value="&lt;div&gt;Apache&lt;/div&gt;&lt;div&gt;Kafka&lt;/div&gt;&lt;div&gt;&lt;div&gt;Adapter&lt;/div&gt;&lt;/div&gt;" style="rounded=1;whiteSpace=wrap;html=1;" vertex="1" parent="1">
          <mxGeometry x="160" y="390" width="80" height="80" as="geometry" />
        </mxCell>
        <mxCell id="pyAssOhsW1V1CbU0fwzd-14" value="Apache&lt;div&gt;Cassandra&lt;div&gt;Adapter&lt;/div&gt;&lt;/div&gt;" style="rounded=1;whiteSpace=wrap;html=1;" vertex="1" parent="1">
          <mxGeometry x="680" y="390" width="80" height="80" as="geometry" />
        </mxCell>
        <mxCell id="pyAssOhsW1V1CbU0fwzd-17" value="" style="endArrow=open;endSize=12;dashed=1;html=1;rounded=0;entryX=1;entryY=0.5;entryDx=0;entryDy=0;" edge="1" parent="1" source="pyAssOhsW1V1CbU0fwzd-6" target="pyAssOhsW1V1CbU0fwzd-8">
          <mxGeometry width="160" relative="1" as="geometry">
            <mxPoint x="490" y="260" as="sourcePoint" />
            <mxPoint x="510" y="390" as="targetPoint" />
          </mxGeometry>
        </mxCell>
        <mxCell id="pyAssOhsW1V1CbU0fwzd-18" value="" style="endArrow=open;endSize=12;dashed=1;html=1;rounded=0;entryX=0;entryY=0.5;entryDx=0;entryDy=0;exitX=1;exitY=0.5;exitDx=0;exitDy=0;" edge="1" parent="1" source="pyAssOhsW1V1CbU0fwzd-6" target="pyAssOhsW1V1CbU0fwzd-11">
          <mxGeometry width="160" relative="1" as="geometry">
            <mxPoint x="410" y="450" as="sourcePoint" />
            <mxPoint x="360" y="450" as="targetPoint" />
          </mxGeometry>
        </mxCell>
        <mxCell id="pyAssOhsW1V1CbU0fwzd-24" value="" style="endArrow=open;endSize=12;dashed=1;html=1;rounded=0;entryX=0.5;entryY=1;entryDx=0;entryDy=0;" edge="1" parent="1" target="pyAssOhsW1V1CbU0fwzd-7">
          <mxGeometry width="160" relative="1" as="geometry">
            <mxPoint x="460" y="400" as="sourcePoint" />
            <mxPoint x="470" y="470" as="targetPoint" />
          </mxGeometry>
        </mxCell>
        <mxCell id="pyAssOhsW1V1CbU0fwzd-31" value="" style="endArrow=classic;html=1;rounded=0;exitX=0.5;exitY=1;exitDx=0;exitDy=0;entryX=-0.2;entryY=0.113;entryDx=0;entryDy=0;entryPerimeter=0;" edge="1" parent="1" source="pyAssOhsW1V1CbU0fwzd-32" target="pyAssOhsW1V1CbU0fwzd-8">
          <mxGeometry width="50" height="50" relative="1" as="geometry">
            <mxPoint x="191.03999999999996" y="298.98" as="sourcePoint" />
            <mxPoint x="450" y="370" as="targetPoint" />
          </mxGeometry>
        </mxCell>
        <mxCell id="pyAssOhsW1V1CbU0fwzd-32" value="Apache Kafka&lt;div&gt;Port i.e. interface&lt;/div&gt;&lt;div&gt;implemented by&lt;/div&gt;&lt;div&gt;Apache Kafka&lt;/div&gt;&lt;div&gt;Adapter&lt;/div&gt;" style="rounded=1;whiteSpace=wrap;html=1;" vertex="1" parent="1">
          <mxGeometry x="160" y="239" width="120" height="80" as="geometry" />
        </mxCell>
        <mxCell id="pyAssOhsW1V1CbU0fwzd-33" value="" style="endArrow=classic;html=1;rounded=0;exitX=0.5;exitY=1;exitDx=0;exitDy=0;entryX=1.15;entryY=0.113;entryDx=0;entryDy=0;entryPerimeter=0;" edge="1" parent="1" source="pyAssOhsW1V1CbU0fwzd-34" target="pyAssOhsW1V1CbU0fwzd-11">
          <mxGeometry width="50" height="50" relative="1" as="geometry">
            <mxPoint x="671.04" y="299.98" as="sourcePoint" />
            <mxPoint x="786" y="400" as="targetPoint" />
          </mxGeometry>
        </mxCell>
        <mxCell id="pyAssOhsW1V1CbU0fwzd-34" value="Apache Cassandra&lt;div&gt;Port i.e. interface&lt;/div&gt;&lt;div&gt;implemented by&lt;/div&gt;&lt;div&gt;Apache&amp;nbsp;&lt;span style=&quot;background-color: transparent; color: light-dark(rgb(0, 0, 0), rgb(255, 255, 255));&quot;&gt;Cassandra&lt;/span&gt;&lt;/div&gt;&lt;div&gt;Adapter&lt;/div&gt;" style="rounded=1;whiteSpace=wrap;html=1;" vertex="1" parent="1">
          <mxGeometry x="640" y="241" width="120" height="80" as="geometry" />
        </mxCell>
      </root>
    </mxGraphModel>
  </diagram>
</mxfile>
